<?xml version="1.0" standalone="no"?>
<!DOCTYPE svg PUBLIC "-//W3C//DTD SVG 20010904//EN"
 "http://www.w3.org/TR/2001/REC-SVG-20010904/DTD/svg10.dtd">
<svg version="1.0" xmlns="http://www.w3.org/2000/svg"
 width="1280.000000pt" height="973.000000pt" viewBox="0 0 1280.000000 973.000000"
 preserveAspectRatio="xMidYMid meet">
<metadata>
Created by potrace 1.15, written by Peter Selinger 2001-2017
</metadata>
<g transform="translate(0.000000,973.000000) scale(0.100000,-0.100000)"
fill="#000000" stroke="none">
<path d="M3645 9724 c-95 -10 -265 -48 -363 -80 -276 -90 -517 -241 -756 -474
-396 -385 -681 -929 -812 -1545 -9 -44 -18 -82 -20 -84 -5 -6 -175 89 -274
153 -343 225 -658 567 -849 924 -24 45 -46 81 -48 79 -2 -2 17 -64 43 -138
165 -483 452 -857 873 -1140 57 -39 130 -84 163 -100 54 -27 59 -32 54 -57 -3
-15 -8 -64 -12 -110 -5 -70 -9 -82 -23 -78 -9 3 -61 17 -116 31 -330 88 -655
266 -912 499 -188 170 -367 389 -505 617 -38 61 -68 109 -68 105 0 -30 147
-329 225 -457 122 -200 316 -426 485 -564 221 -181 493 -316 790 -394 l105
-28 7 -159 c18 -391 74 -720 178 -1039 200 -614 555 -1121 998 -1427 l77 -52
-123 119 c-141 135 -221 232 -327 390 -246 368 -396 796 -467 1335 -14 107
-18 632 -5 721 l8 56 82 6 c59 4 116 17 202 47 127 43 305 94 310 88 1 -2 26
-54 53 -117 28 -63 73 -151 99 -195 63 -106 212 -258 311 -316 55 -32 71 -47
67 -59 -19 -49 -57 -210 -71 -301 -19 -134 -19 -402 1 -532 58 -383 224 -691
460 -855 108 -75 210 -107 340 -107 163 0 293 56 430 186 174 164 291 393 357
698 20 93 22 133 22 345 0 263 -10 340 -74 540 -17 51 -30 95 -30 98 0 4 26
24 58 46 182 123 334 333 418 576 15 44 30 83 33 87 12 13 412 -58 583 -103
68 -19 77 -24 82 -47 34 -167 40 -628 12 -862 -66 -559 -255 -1061 -548 -1455
l-59 -80 56 58 c260 272 495 681 634 1107 123 379 175 719 175 1150 0 486 -68
878 -224 1295 -319 851 -927 1436 -1636 1575 -106 21 -370 34 -469 24z"/>
<path d="M9185 8873 c-333 -28 -620 -113 -940 -276 -1127 -577 -1926 -1946
-1882 -3222 7 -175 29 -357 63 -504 19 -84 28 -90 14 -10 -17 97 -24 416 -11
558 51 571 273 1153 629 1646 74 102 82 110 110 108 53 -5 562 -177 611 -207
4 -3 -1 -45 -12 -93 -23 -109 -28 -376 -9 -468 19 -88 51 -182 83 -247 16 -32
29 -61 29 -65 0 -4 -30 -33 -66 -63 -84 -70 -220 -228 -297 -345 -73 -111
-165 -300 -206 -424 -57 -172 -74 -278 -75 -461 0 -195 19 -292 86 -429 53
-110 161 -223 261 -270 228 -109 512 -66 793 122 316 209 585 599 684 992 l28
110 119 6 c95 5 137 13 213 38 117 39 250 112 370 202 51 38 95 69 99 69 8 0
89 -83 242 -250 55 -60 118 -118 147 -135 29 -16 52 -34 52 -38 0 -4 -33 -75
-74 -156 -315 -629 -790 -1129 -1346 -1419 -196 -103 -330 -149 -625 -220
-126 -31 190 6 339 39 231 51 546 180 776 319 460 276 881 705 1185 1205 37
61 72 109 78 108 7 0 63 -15 126 -32 199 -53 303 -66 536 -66 227 0 300 9 489
56 258 64 503 176 751 342 98 66 221 157 212 157 -3 0 -34 -17 -69 -37 -100
-59 -333 -167 -453 -211 -394 -143 -797 -183 -1183 -116 -93 16 -259 56 -304
73 l-27 10 44 93 44 93 163 7 c190 7 290 20 445 54 307 68 591 202 853 400
101 78 255 218 205 188 -403 -243 -776 -369 -1200 -404 -147 -12 -335 -13
-353 -1 -11 6 -7 31 22 122 43 137 89 329 110 459 35 214 41 291 40 540 0 211
-4 279 -22 395 -59 374 -183 692 -378 967 -80 112 -268 300 -383 381 -116 82
-293 174 -427 220 -210 73 -490 109 -709 90z"/>
<path d="M1456 2729 c-303 -44 -566 -231 -707 -502 -45 -86 -46 -120 -5 -138
36 -17 59 2 105 87 116 215 302 365 524 423 l38 10 40 -80 c230 -458 618 -900
1109 -1264 1483 -1099 3917 -1553 5760 -1074 682 177 1235 464 1662 864 45 41
84 75 89 75 4 0 35 -25 68 -56 120 -111 157 -248 113 -422 -23 -91 -79 -208
-147 -310 -50 -74 -54 -91 -27 -115 22 -20 52 -22 74 -4 27 21 98 134 144 230
186 387 58 713 -333 846 -108 36 -224 51 -404 51 -156 0 -171 -2 -189 -20 -23
-23 -26 -49 -7 -72 10 -14 44 -17 217 -20 175 -4 217 -8 288 -27 45 -13 82
-27 82 -31 0 -4 -42 -44 -92 -90 -583 -516 -1392 -834 -2401 -944 -347 -38
-905 -45 -1257 -16 -1403 116 -2673 554 -3585 1236 -339 253 -645 562 -856
864 -82 116 -229 371 -229 396 0 11 209 -4 290 -21 215 -45 427 -151 603 -302
112 -96 148 -123 161 -123 19 0 43 23 51 49 6 20 -4 34 -72 100 -307 295 -744
453 -1107 400z"/>
</g>
</svg>
